PathFileType	4	(X/Y/Z)	C:\Users\chris\Documents\GitHub\baseballds\vids\pitch5_Sports2D\pitch5_Sports2D_m_person03.trc
DataRate	CameraRate	NumFrames	NumMarkers	Units	OrigDataRate	OrigDataStartFrame	OrigNumFrames
30	30	9	22	m	30	55	149
Frame#	Time	Hip			RHip			RKnee			RAnkle			RBigToe			RSmallToe			RHeel			LHip			LKnee			LAnkle			LBigToe			LSmallToe			LHeel			Neck			Head			Nose			RShoulder			RElbow			RWrist			LShoulder			LElbow			LWrist		
		X1	Y1	Z1	X2	Y2	Z2	X3	Y3	Z3	X4	Y4	Z4	X5	Y5	Z5	X6	Y6	Z6	X7	Y7	Z7	X8	Y8	Z8	X9	Y9	Z9	X10	Y10	Z10	X11	Y11	Z11	X12	Y12	Z12	X13	Y13	Z13	X14	Y14	Z14	X15	Y15	Z15	X16	Y16	Z16	X17	Y17	Z17	X18	Y18	Z18	X19	Y19	Z19	X20	Y20	Z20	X21	Y21	Z21	X22	Y22	Z22
55	1.8333333333333333	3.151637022986727	1.3110332814037196	0.0	3.148638928493164	1.3102078026894277	0.0	3.152577809379878	1.281896562936145	0.0	3.158676126900902	1.2548371225085393	0.0	3.1448208744693833	1.2472970361387885	0.0	3.1448574727997767	1.2499043288192828	0.0	3.162549189503113	1.2514535742837096	0.0	3.1542453446187135	1.3103998386354467	0.0	3.1579540020898476	1.2810286317465152	0.0	3.162498736624594	1.2536053522598551	0.0	3.1517168955809978	1.2469997233793215	0.0	3.1529147694831283	1.247815286344255	0.0	3.1670326238076596	1.25092099680164	0.0	3.1498104474605664	1.3525230846338168	0.0	3.1435210966108333	1.3731657604682237	0.0	3.14084282453369	1.3592123357888357	0.0	3.1479369227068963	1.3452721373991439	0.0	3.1489581997749116	1.3287396362579766	0.0	3.1478877019179894	1.309090700086009	0.0	3.15574961415759	1.347285440840034	0.0	3.159011727331797	1.3288794222374116	0.0	3.1542765570697644	1.3079176798992618	0.0
56	1.8666666666666667	3.1527984317712976	1.309636444451391	0.0	3.149889232067685	1.308826408220798	0.0	3.1536816657313183	1.2808437676970497	0.0	3.1596840640950323	1.2539910364792852	0.0	3.145496751811857	1.246437886038687	0.0	3.145541731567315	1.2489990123665877	0.0	3.1635473309143274	1.25067189642558	0.0	3.1550700419967797	1.3090684684838143	0.0	3.1586037275056547	1.2797452273091128	0.0	3.163488185672538	1.2526338930691203	0.0	3.1527219923355476	1.2459974001956422	0.0	3.1534813322739605	1.246582227536902	0.0	3.1681314286202005	1.2499664166436248	0.0	3.1508467090388437	1.3509814981178165	0.0	3.1437969258960514	1.3714379068732327	0.0	3.1413077836882715	1.3574388916527265	0.0	3.1494196453278245	1.343764845283056	0.0	3.151508428847879	1.3273587130822748	0.0	3.149891143315796	1.3078507815068763	0.0	3.156521514131796	1.3456758423876016	0.0	3.1598468420356673	1.327711214451804	0.0	3.1549412552078278	1.306810591448989	0.0
57	1.9	3.1542708792644536	1.3093199797961184	0.0	3.151679061053249	1.3084723964950415	0.0	3.1550493616550637	1.280615647822429	0.0	3.16080168858483	1.2534502811888673	0.0	3.1464489480770057	1.245918077728399	0.0	3.1465038721777048	1.2483954431860282	0.0	3.1647311396207534	1.250078568601027	0.0	3.156464575996748	1.308724235801691	0.0	3.159246323853816	1.2793987989819748	0.0	3.1642412422654265	1.2520248716044553	0.0	3.1535656054373074	1.2453666379751092	0.0	3.154229696025528	1.245690641924586	0.0	3.169257033627026	1.2493695898064272	0.0	3.151932188129221	1.3507829546231045	0.0	3.1443132409691725	1.3709250405535196	0.0	3.1417794450112013	1.3568603655787632	0.0	3.1512065453554543	1.3437117281002582	0.0	3.1533111051788802	1.3268581499797745	0.0	3.151132862285323	1.3073690765332941	0.0	3.157365942008621	1.3453671946409216	0.0	3.1605118658497275	1.3270893761920233	0.0	3.1559068942221082	1.3061824519519798	0.0
58	1.9333333333333333	3.155643664987024	1.3095136400394245	0.0	3.1533175336588624	1.308719027919835	0.0	3.1564007290617333	1.2805679615399932	0.0	3.161865448514122	1.253125399119719	0.0	3.147812961059413	1.2455387100199125	0.0	3.1478981618928756	1.2479519719995718	0.0	3.1659233308846826	1.2494887518716995	0.0	3.1578780975500194	1.308879060846899	0.0	3.160063742516694	1.2794782638114137	0.0	3.165014665312185	1.251794098466793	0.0	3.1542496021677184	1.2448434485235256	0.0	3.15518932574585	1.2451289266790926	0.0	3.170194426937383	1.2489843657483515	0.0	3.1531301031881993	1.3513975921521058	0.0	3.145072550476927	1.3710268120082993	0.0	3.1426119023694485	1.357041252462793	0.0	3.1528446177877862	1.3442200750710451	0.0	3.154261689533717	1.326739599916928	0.0	3.152041343031821	1.3071137237130706	0.0	3.158338008845227	1.3457422746350178	0.0	3.161360944699291	1.3267460455728248	0.0	3.15710973063767	1.3058725303084886	0.0
59	1.9666666666666666	3.156741836949298	1.3090965589180381	0.0	3.154453615248855	1.308342882679398	0.0	3.1574533260358244	1.279843677087416	0.0	3.1627500361612744	1.252534012600318	0.0	3.1490580566163615	1.2448934494719288	0.0	3.149255804448563	1.2472940199247584	0.0	3.166966661467809	1.248601579309801	0.0	3.1588152953810185	1.3083326575363392	0.0	3.161176124573118	1.2789541573390084	0.0	3.1661888176782167	1.2513145694214027	0.0	3.1549832031978085	1.2439917956839088	0.0	3.156207057583811	1.244417408169536	0.0	3.1710951332128112	1.2482629000942684	0.0	3.154596064178701	1.3511697420343796	0.0	3.1462212507444516	1.3702229372360244	0.0	3.143949116240043	1.3563485781727116	0.0	3.1543907228974146	1.3436275074498603	0.0	3.1555832347712096	1.3259112349266629	0.0	3.153567841615913	1.3062370026845438	0.0	3.1594448643714714	1.3453392375698217	0.0	3.1625464474011116	1.325955828975132	0.0	3.15826765036495	1.3053012446099304	0.0
60	2.0	3.157701358487289	1.308132619480892	0.0	3.1553639597208347	1.3072371280930617	0.0	3.1582755194679084	1.278716279459039	0.0	3.163637893077573	1.2515235594493088	0.0	3.1498061768831045	1.2438996318663647	0.0	3.1501118767863927	1.2463144797133225	0.0	3.167890287511333	1.2475877802234192	0.0	3.159534294460349	1.3071496051217584	0.0	3.1623620697126276	1.277837008144049	0.0	3.1673626461840674	1.2502698319388117	0.0	3.155784723726831	1.243005361619662	0.0	3.1571457109990284	1.2435223107952593	0.0	3.172067199239828	1.247225317123431	0.0	3.156139020337483	1.35009909128565	0.0	3.1479966707509037	1.3692906206812554	0.0	3.145527160467885	1.3553207158100657	0.0	3.155826219714202	1.3423723795067077	0.0	3.1573606992075214	1.3247271122127031	0.0	3.1554970839128416	1.3049777134892862	0.0	3.1606004451391883	1.3442202632425793	0.0	3.163700667252879	1.3249187305435117	0.0	3.1591961051153725	1.3043392451480993	0.0
61	2.033333333333333	3.158601078670607	1.307497026436988	0.0	3.156275136629366	1.3063436897459522	0.0	3.159106851791872	1.2779293514054537	0.0	3.1647244612182477	1.2504410548545655	0.0	3.150412007479041	1.2428963398096988	0.0	3.1506928954129467	1.2452947531692058	0.0	3.168815633358125	1.2467721557370572	0.0	3.1604146337469805	1.3063321118939113	0.0	3.163277708341508	1.2768572858451523	0.0	3.1680456057121478	1.249108179944432	0.0	3.1564396761128037	1.242265268429262	0.0	3.158050729957306	1.2427292389307343	0.0	3.1729773795550744	1.2463340155805618	0.0	3.157276115995861	1.3496582330865894	0.0	3.149981113015177	1.3699670848326924	0.0	3.146925216283022	1.3557624870591116	0.0	3.1568629338488203	1.3421103475428926	0.0	3.1586234695917184	1.3242984467592696	0.0	3.1571232799900533	1.3040988653227121	0.0	3.1615123948690984	1.343653201609038	0.0	3.1644483058894215	1.324366848839681	0.0	3.1600031696826094	1.3033790846238005	0.0
62	2.0666666666666664	3.159276728876356	1.3074214472800376	0.0	3.15693337492043	1.3061251985443056	0.0	3.1599754284278885	1.277548190267445	0.0	3.165871442174748	1.2495630810609726	0.0	3.1513308157422713	1.2421428321986976	0.0	3.151487097239453	1.2444747717093245	0.0	3.1696976992541184	1.246099306300177	0.0	3.161191094333312	1.306216931925814	0.0	3.163914508061793	1.2763071309487548	0.0	3.1685813199659987	1.2482306011784565	0.0	3.15714111318589	1.2416563894844765	0.0	3.1591827398143275	1.2421010596790985	0.0	3.173704936090578	1.2456310061924523	0.0	3.1578439937301157	1.350341416974368	0.0	3.1513776072131052	1.3718500378880882	0.0	3.148060921408857	1.3575068148808784	0.0	3.1575527819051405	1.3429966646351479	0.0	3.159273437904874	1.3247513801571265	0.0	3.1583968604010546	1.3037009514082283	0.0	3.1619535136297436	1.3440341060194256	0.0	3.164888112439683	1.3244332933401064	0.0	3.1608848607063136	1.3027279392704814	0.0
63	2.1	3.159738240736486	1.3073886264890417	0.0	3.1573686681198816	1.3061422927266844	0.0	3.160800634738185	1.2772374358706358	0.0	3.166760695773813	1.2489058721257413	0.0	3.152502408127926	1.241564085639039	0.0	3.152556311772828	1.243807022903401	0.0	3.1703974084630455	1.2454207679213856	0.0	3.1615812053041923	1.306262328229061	0.0	3.164447341195108	1.2759854421129744	0.0	3.16932202837307	1.247590064571066	0.0	3.15800242512177	1.240989191599286	0.0	3.1604739011154197	1.2415644395689074	0.0	3.1742784294946462	1.244877840225483	0.0	3.1582402334065844	1.3511392200738221	0.0	3.152197161673143	1.373075780176436	0.0	3.1491007807250444	1.3587210373052383	0.0	3.158359078397061	1.3437905740950467	0.0	3.160019203513077	1.3253617814377558	0.0	3.159453638620202	1.3033974484468167	0.0	3.1621831624346255	1.3445480899631908	0.0	3.165182924950708	1.3246833568302196	0.0	3.1618049295975736	1.3023404595218318	0.0
